<svg width="1422" height="375" viewBox="0 0 1422 375" fill="none" xmlns="http://www.w3.org/2000/svg">
<path fill-rule="evenodd" clip-rule="evenodd" d="M174.007 2.68402C182.646 -0.894677 192.354 -0.894672 200.993 2.68403L308.643 47.274C317.283 50.8527 324.147 57.717 327.726 66.3567L372.316 174.007C375.895 182.646 375.895 192.354 372.316 200.993L327.726 308.643C324.147 317.283 317.283 324.147 308.643 327.726L200.993 372.316C192.354 375.895 182.646 375.895 174.007 372.316L66.3567 327.726C57.717 324.147 50.8527 317.283 47.274 308.643L2.68402 200.993C-0.894677 192.354 -0.894672 182.646 2.68403 174.007L47.274 66.3567C50.8527 57.717 57.717 50.8527 66.3567 47.274L174.007 2.68402Z" fill="url(#paint0_linear_1309_4660)"/>
<path fill-rule="evenodd" clip-rule="evenodd" d="M165.207 272.668C153.758 243.974 131.026 221.242 102.332 209.793L101.18 209.333C81.4522 201.462 81.4522 173.538 101.18 165.667L102.332 165.207C131.026 153.758 153.758 131.026 165.207 102.332L165.667 101.18C173.538 81.4522 201.462 81.4522 209.333 101.18L209.793 102.332C221.242 131.026 243.974 153.758 272.668 165.207L273.82 165.667C293.548 173.538 293.548 201.462 273.82 209.333L272.668 209.793C243.974 221.242 221.242 243.974 209.793 272.668L209.333 273.82C201.462 293.548 173.538 293.548 165.667 273.82L165.207 272.668Z" fill="#1C0631"/>
<path fill-rule="evenodd" clip-rule="evenodd" d="M286.278 79.1807L194.834 41.3036C190.515 39.5142 185.661 39.5142 181.341 41.3036L89.8974 79.1807C85.5776 80.9701 82.1454 84.4022 80.3561 88.7221L42.4789 180.166C40.6896 184.485 40.6896 189.339 42.4789 193.659L80.3561 285.103C82.1454 289.422 85.5775 292.855 89.8974 294.644L181.341 332.521C185.661 334.31 190.515 334.31 194.834 332.521L286.278 294.644C290.598 292.855 294.03 289.422 295.819 285.103L333.696 193.659C335.486 189.339 335.486 184.485 333.696 180.166L295.819 88.7221C294.03 84.4022 290.598 80.9701 286.278 79.1807ZM201.581 25.0155C192.941 21.4368 183.234 21.4368 174.594 25.0155L83.1507 62.8926C74.5109 66.4713 67.6467 73.3356 64.068 81.9753L26.1908 173.419C22.6121 182.059 22.6121 191.766 26.1908 200.406L64.068 291.849C67.6467 300.489 74.5109 307.353 83.1507 310.932L174.594 348.809C183.234 352.388 192.941 352.388 201.581 348.809L293.025 310.932C301.664 307.353 308.529 300.489 312.107 291.849L349.984 200.406C353.563 191.766 353.563 182.059 349.984 173.419L312.107 81.9753C308.529 73.3356 301.664 66.4713 293.025 62.8926L201.581 25.0155Z" fill="white"/>
<path d="M627.385 226.754C627.385 208.736 619.92 169.353 562.518 169.353H508.205V126.108H562.261C574.874 126.108 585.17 136.147 585.17 148.76C585.17 161.116 574.874 169.353 562.518 169.353C583.368 169.353 611.683 169.353 617.346 147.473C624.811 120.188 595.724 97.5363 567.924 97.5363H475V277.721H576.676C583.626 277.721 590.318 276.177 596.239 273.602C605.505 269.741 613.227 263.306 618.633 255.069H618.89C624.296 246.832 627.385 237.308 627.385 226.754ZM570.498 248.891H508.205V198.182H570.498C583.368 197.925 593.922 210.538 593.922 223.408C593.922 236.021 583.368 248.891 570.498 248.891Z" fill="white"/>
<path d="M775.272 125.851V97.5363H642.707V277.464H775.272V249.149H676.17V201.529H765.49V173.471H676.17V125.851H775.272Z" fill="white"/>
<path d="M785.668 127.138H890.69C890.69 127.138 842.04 127.138 842.04 153.136V277.464H875.245V150.82C875.245 127.138 898.669 127.138 898.669 127.138H931.875V97.5363H785.668V127.138Z" fill="white"/>
<path d="M1072.32 119.931C1059.19 105.773 1041.68 97.2789 1022.64 97.2789H944.641V277.464H1022.64C1041.68 277.464 1059.19 268.969 1072.32 255.069C1088.02 238.595 1097.8 214.399 1097.8 187.371C1097.8 160.601 1088.02 136.405 1072.32 119.931ZM1015.69 249.149C1015.17 249.149 977.847 249.149 977.847 249.149V125.851H1014.4C1045.54 125.851 1064.59 150.047 1064.59 187.371C1064.59 224.438 1046.32 248.377 1015.69 249.149Z" fill="white"/>
<path d="M1246.16 125.851V97.5363H1113.6V277.464H1246.16V249.149H1147.06V201.529H1236.38V173.471H1147.06V125.851H1246.16Z" fill="white"/>
<path d="M1326.63 138.979L1299.35 97.5363H1258.16L1317.88 185.055L1254.3 277.464H1294.2L1338.22 211.825L1380.95 277.464H1421.87L1326.63 138.979ZM1376.06 160.344L1418.79 97.5363H1379.15L1351.6 139.751C1339.5 157.769 1326.63 138.979 1326.63 138.979C1326.63 138.979 1358.55 185.569 1376.06 160.344Z" fill="white"/>
<defs>
<linearGradient id="paint0_linear_1309_4660" x1="187.5" y1="-187.5" x2="-187.5" y2="187.5" gradientUnits="userSpaceOnUse">
<stop stop-color="#32C5FF"/>
<stop offset="0.512584" stop-color="#B620E0"/>
<stop offset="1" stop-color="#F7B500"/>
</linearGradient>
</defs>
</svg>
