<svg width="375" height="375" viewBox="0 0 375 375" fill="none" xmlns="http://www.w3.org/2000/svg">
<path fill-rule="evenodd" clip-rule="evenodd" d="M174.007 2.68402C182.646 -0.894677 192.354 -0.894672 200.993 2.68403L308.643 47.274C317.283 50.8527 324.147 57.717 327.726 66.3567L372.316 174.007C375.895 182.646 375.895 192.354 372.316 200.993L327.726 308.643C324.147 317.283 317.283 324.147 308.643 327.726L200.993 372.316C192.354 375.895 182.646 375.895 174.007 372.316L66.3567 327.726C57.717 324.147 50.8527 317.283 47.274 308.643L2.68402 200.993C-0.894677 192.354 -0.894672 182.646 2.68403 174.007L47.274 66.3567C50.8527 57.717 57.717 50.8527 66.3567 47.274L174.007 2.68402Z" fill="url(#paint0_linear_1309_4659)"/>
<path fill-rule="evenodd" clip-rule="evenodd" d="M165.207 272.668C153.758 243.974 131.026 221.242 102.332 209.793L101.18 209.333C81.4522 201.462 81.4522 173.538 101.18 165.667L102.332 165.207C131.026 153.758 153.758 131.026 165.207 102.332L165.667 101.18C173.538 81.4522 201.462 81.4522 209.333 101.18L209.793 102.332C221.242 131.026 243.974 153.758 272.668 165.207L273.82 165.667C293.548 173.538 293.548 201.462 273.82 209.333L272.668 209.793C243.974 221.242 221.242 243.974 209.793 272.668L209.333 273.82C201.462 293.548 173.538 293.548 165.667 273.82L165.207 272.668Z" fill="#1C0631"/>
<path fill-rule="evenodd" clip-rule="evenodd" d="M286.278 79.1807L194.834 41.3036C190.515 39.5142 185.661 39.5142 181.341 41.3036L89.8974 79.1807C85.5776 80.9701 82.1454 84.4022 80.3561 88.7221L42.4789 180.166C40.6896 184.485 40.6896 189.339 42.4789 193.659L80.3561 285.103C82.1454 289.422 85.5775 292.855 89.8974 294.644L181.341 332.521C185.661 334.31 190.515 334.31 194.834 332.521L286.278 294.644C290.598 292.855 294.03 289.422 295.819 285.103L333.696 193.659C335.486 189.339 335.486 184.485 333.696 180.166L295.819 88.7221C294.03 84.4022 290.598 80.9701 286.278 79.1807ZM201.581 25.0155C192.941 21.4368 183.234 21.4368 174.594 25.0155L83.1507 62.8926C74.5109 66.4713 67.6467 73.3356 64.068 81.9753L26.1908 173.419C22.6121 182.059 22.6121 191.766 26.1908 200.406L64.068 291.849C67.6467 300.489 74.5109 307.353 83.1507 310.932L174.594 348.809C183.234 352.388 192.941 352.388 201.581 348.809L293.025 310.932C301.664 307.353 308.529 300.489 312.107 291.849L349.984 200.406C353.563 191.766 353.563 182.059 349.984 173.419L312.107 81.9753C308.529 73.3356 301.664 66.4713 293.025 62.8926L201.581 25.0155Z" fill="white"/>
<defs>
<linearGradient id="paint0_linear_1309_4659" x1="187.5" y1="-187.5" x2="-187.5" y2="187.5" gradientUnits="userSpaceOnUse">
<stop stop-color="#32C5FF"/>
<stop offset="0.512584" stop-color="#B620E0"/>
<stop offset="1" stop-color="#F7B500"/>
</linearGradient>
</defs>
</svg>
